<?xml version="1.0" standalone="no"?>
<!DOCTYPE svg PUBLIC "-//W3C//DTD SVG 20010904//EN"
 "http://www.w3.org/TR/2001/REC-SVG-20010904/DTD/svg10.dtd">
<svg version="1.0" xmlns="http://www.w3.org/2000/svg"
 width="380.000000pt" height="380.000000pt" viewBox="0 0 380.000000 380.000000"
 preserveAspectRatio="xMidYMid meet">
<metadata>
Created by potrace 1.16, written by Peter Selinger 2001-2019
</metadata>
<g transform="translate(0.000000,380.000000) scale(0.100000,-0.100000)"
fill="#000000" stroke="none">
<path d="M0 1900 l0 -1900 770 0 770 0 -6 33 c-3 17 -9 50 -14 72 -15 69 -28
138 -35 185 -3 24 -11 50 -16 57 -13 15 -2 53 14 53 13 0 97 -86 131 -134 10
-14 29 -26 40 -26 12 0 37 -11 56 -25 19 -14 40 -23 47 -21 7 3 15 1 18 -4 4
-6 39 -10 80 -10 41 0 86 -5 102 -11 15 -6 36 -12 46 -14 10 -2 36 -22 59 -44
23 -23 48 -41 56 -41 9 0 12 -6 8 -15 -3 -9 3 -24 14 -35 20 -20 36 -20 840
-20 l820 0 0 1900 0 1900 -1259 0 c-1191 0 -1260 -1 -1263 -17 -2 -10 -1 -30
3 -45 5 -18 3 -31 -7 -39 -12 -10 -14 -3 -14 45 l0 56 -630 0 -630 0 0 -1900z
m2186 189 c-3 -18 -17 -42 -31 -55 -14 -13 -25 -31 -26 -41 -2 -49 -7 -66 -22
-75 -21 -11 -22 -28 -3 -28 15 0 26 -21 26 -51 0 -27 -55 -27 -70 1 -6 11 -8
25 -5 31 4 5 -5 21 -18 33 -55 51 -40 153 27 181 19 8 41 12 49 9 8 -3 20 2
27 11 7 8 21 15 32 15 18 0 20 -5 14 -31z m-920 -169 c8 -25 14 -56 14 -70 l1
-25 17 28 c18 29 24 32 85 43 30 5 37 3 37 -10 0 -9 -7 -19 -15 -22 -9 -4 -15
-19 -15 -39 0 -27 4 -34 23 -37 12 -2 22 -9 22 -16 0 -16 42 -41 69 -42 11 0
27 -7 37 -15 15 -15 20 -14 54 5 20 11 51 30 68 43 18 12 34 23 36 24 5 3 22
105 24 147 1 16 7 31 13 33 15 5 23 -29 19 -70 -3 -18 -7 -57 -10 -87 -18
-198 -60 -234 -352 -310 -24 -6 -43 -15 -43 -20 0 -6 2 -10 4 -10 9 0 142 30
196 45 30 8 66 16 81 19 37 8 80 56 100 112 9 27 29 85 44 128 29 87 49 119
82 135 28 13 32 7 22 -37 -5 -22 -4 -41 1 -46 6 -6 10 -22 10 -38 0 -24 5 -40
31 -103 18 -45 29 -106 23 -131 -6 -23 -4 -26 10 -21 15 6 17 3 11 -26 -8 -34
-32 -83 -52 -105 -7 -7 -13 -24 -13 -36 0 -26 -22 -48 -65 -63 -16 -6 -39 -15
-50 -19 -11 -4 -24 -6 -28 -5 -5 1 -26 -12 -47 -29 -21 -16 -45 -30 -53 -30
-18 0 -124 -101 -150 -142 -23 -37 -35 -112 -16 -106 8 2 21 18 29 35 17 33
65 93 75 93 4 0 20 11 37 25 18 15 42 25 62 25 22 0 47 11 78 36 39 30 53 35
90 32 41 -3 43 -4 41 -32 -1 -17 2 -35 6 -40 15 -19 -11 -81 -34 -81 -14 0
-19 6 -17 17 2 11 -4 18 -15 19 -10 1 -39 3 -65 5 -26 1 -50 -1 -53 -6 -3 -5
-25 -18 -49 -29 -46 -20 -126 -94 -126 -117 0 -20 19 -27 37 -12 9 7 18 12 20
11 13 -11 39 2 66 32 l31 36 114 -2 c72 -1 118 3 125 10 15 15 87 14 87 -1 0
-7 -9 -28 -21 -47 -14 -23 -18 -42 -14 -62 5 -23 3 -28 -8 -24 -7 3 -19 -1
-26 -9 -7 -9 -29 -18 -50 -22 -39 -7 -71 -29 -71 -51 0 -7 15 -19 33 -26 27
-12 35 -12 55 1 17 11 25 12 37 2 17 -14 51 -5 59 15 6 16 46 21 46 6 0 -5 -9
-13 -21 -16 -26 -9 -19 -31 9 -27 12 2 22 -2 22 -8 0 -6 -5 -8 -11 -5 -13 8
-49 -23 -49 -42 0 -8 14 -19 30 -24 22 -8 30 -17 30 -36 0 -13 4 -21 10 -18 6
3 14 4 20 0 13 -8 1 -35 -16 -35 -8 0 -14 -10 -14 -25 0 -15 -6 -25 -14 -25
-8 0 -18 -9 -21 -20 -4 -12 -24 -39 -44 -62 -35 -37 -48 -43 -116 -52 -11 -1
-27 -5 -35 -9 -30 -12 -87 -19 -160 -20 -70 -2 -79 0 -115 29 -22 16 -51 31
-64 32 -13 0 -33 10 -45 21 -12 12 -26 21 -32 21 -33 0 -164 162 -164 202 0 8
-10 34 -22 59 -26 52 -48 109 -48 126 0 7 -12 38 -26 69 l-26 56 -31 -45 c-18
-26 -42 -51 -55 -57 -54 -24 -132 -2 -132 37 0 8 -13 42 -29 76 -53 110 -76
203 -75 297 1 103 7 156 22 193 7 16 12 33 12 38 0 5 4 9 10 9 25 0 21 -94 -8
-185 -5 -16 -6 -39 -2 -50 7 -18 10 -16 24 17 9 21 21 61 27 90 5 29 15 63 21
74 15 31 -14 84 -42 77 -16 -4 -20 0 -20 19 0 46 44 63 88 32 17 -12 22 -25
22 -59 0 -24 3 -50 6 -59 10 -27 24 -18 24 17 0 17 5 39 10 47 9 13 13 12 29
-7 11 -13 21 -23 23 -23 6 0 3 113 -4 130 -19 53 -26 92 -22 140 4 62 29 103
65 108 13 2 31 10 39 17 21 19 61 34 84 32 13 -1 23 -16 32 -47z"/>
<path d="M991 1343 c-14 -27 -34 -56 -45 -65 -16 -13 -20 -27 -18 -65 2 -57
22 -77 68 -68 21 4 35 1 44 -10 24 -29 41 -18 38 23 -3 32 -6 37 -25 34 -40
-6 -61 83 -25 110 15 11 19 35 14 76 -4 26 -28 10 -51 -35z"/>
</g>
</svg>
